# xmcd CD database file
# Copyright (C) 1997 Ti Kan
# 
# Track frame offsets:
#     150
#     19590
#     35995
#     54907
#     69860
#     89327
#     104152
#     119215
#     133787
#     160632
#     185017
#     205972
#     228587
#     237017
#     261310
#     284600
#     300030
#     322767
# 
# Disc length: 4445 seconds
# 
# Revision: 1
# Processed by: cddbd v1.4b41PL1 Copyright (c) Steve Scherf et al.
# Submitted via: DiscPlay 4.0.4
# 
DISCID=00115b12
DTITLE=Various Artist - Club Scala
DYEAR=1900
DGENRE=
TTITLE0=Offshore - Chicane
TTITLE1=Running Up That Hill - Levy 9
TTITLE2=Sign Your Name -DPD Featuring Rose Windross
TTITLE3=Take Luck - F-Action
TTITLE4=Ain't Nobody - The Course
TTITLE5=Electric Love - Oxlip
TTITLE6=All So Nice (Born To Be Alive) - Anti Funky
TTITLE7=Into All Of That - Oxigyzer II
TTITLE8=Body Magic - DJ Rene and Eric Nouhan
TTITLE9=I Have A Dream - DJ Quicksilver
TTITLE10=Let Yourself Go - DJ Jean and Peran
TTITLE11=Housetime - Oran C.
TTITLE12=You Know I Want You - PM Project
TTITLE13=Don't Stop - Phocus
TTITLE14=Life's Too Short - Hole In One
TTITLE15=Flash - BBE
TTITLE16=Surprise - Holy Garage
TTITLE17=Life Formation - Epsylon 9
EXTD=
EXTT0=
EXTT1=
EXTT2=
EXTT3=
EXTT4=
EXTT5=
EXTT6=
EXTT7=
EXTT8=
EXTT9=
EXTT10=
EXTT11=
EXTT12=
EXTT13=
EXTT14=
EXTT15=
EXTT16=
EXTT17=
PLAYORDER=
